<?xml version="1.0" standalone="no"?>
<!DOCTYPE svg PUBLIC "-//W3C//DTD SVG 20010904//EN"
 "http://www.w3.org/TR/2001/REC-SVG-20010904/DTD/svg10.dtd">
<svg version="1.0" xmlns="http://www.w3.org/2000/svg"
 width="1280.000000pt" height="817.000000pt" viewBox="0 0 1280.000000 817.000000"
 preserveAspectRatio="xMidYMid meet">
<metadata>
Created by potrace 1.15, written by Peter Selinger 2001-2017
</metadata>
<g transform="translate(0.000000,817.000000) scale(0.100000,-0.100000)"
fill="#000000" stroke="none">
<path d="M8252 8100 c2 -39 2 -70 0 -70 -1 0 -20 13 -43 29 -86 63 -234 83
-324 45 l-40 -17 30 -21 c48 -34 75 -64 75 -82 0 -12 -4 -14 -17 -8 -30 15
-168 11 -187 -5 -9 -8 -96 -117 -193 -242 -173 -225 -176 -228 -207 -222 -107
20 -190 79 -203 144 -3 16 -9 29 -13 29 -16 0 -30 -55 -24 -96 l6 -44 -33 14
c-19 8 -69 30 -113 50 -43 20 -80 36 -83 36 -2 0 19 -34 47 -75 28 -41 48 -75
46 -75 -3 0 -25 14 -50 31 -122 82 -322 150 -501 170 -259 29 -586 -39 -1010
-211 -28 -11 -28 -13 -10 -20 11 -5 49 -9 85 -10 36 -1 83 -4 105 -8 l39 -7
-69 -32 c-143 -65 -330 -107 -580 -133 -186 -19 -378 -40 -415 -46 -91 -15
-186 -36 -262 -60 -84 -25 -288 -121 -288 -134 0 -4 27 -11 61 -14 33 -4 70
-11 82 -15 19 -7 17 -9 -15 -15 -175 -33 -665 -246 -1028 -448 -770 -428
-1342 -892 -1511 -1224 l-34 -66 -80 5 c-109 7 -200 38 -289 98 -144 96 -224
208 -408 570 -69 136 -151 286 -183 335 -143 220 -327 333 -541 334 l-71 0 53
-107 c30 -60 62 -119 71 -132 l17 -23 -43 21 c-24 13 -45 20 -48 18 -7 -8 41
-121 78 -185 19 -31 70 -93 114 -138 l81 -81 -93 38 c-51 22 -95 39 -97 39 -8
0 35 -144 65 -216 16 -39 52 -104 78 -145 27 -41 48 -75 47 -76 -1 -1 -18 2
-39 6 -26 6 -37 5 -37 -3 0 -25 64 -205 96 -268 19 -38 51 -85 72 -106 42 -42
118 -82 157 -82 34 0 31 -11 -10 -38 -19 -12 -35 -26 -35 -31 0 -18 91 -89
158 -124 96 -50 141 -63 334 -97 233 -42 296 -72 339 -165 16 -35 17 -57 12
-175 -6 -134 -6 -137 28 -245 31 -102 34 -120 33 -235 -1 -140 -9 -170 -106
-430 -30 -80 -60 -165 -67 -190 -14 -53 -30 -150 -24 -150 2 0 19 7 38 14 19
8 35 13 35 10 0 -3 -13 -24 -29 -47 -43 -64 -106 -194 -129 -269 -12 -36 -24
-106 -28 -155 l-7 -88 22 19 c26 24 26 20 1 -32 -42 -87 -51 -159 -50 -420 0
-136 -4 -272 -9 -302 -5 -30 -7 -57 -5 -59 2 -3 23 13 45 35 l40 39 -25 -45
c-69 -124 -133 -335 -200 -653 -64 -301 -73 -339 -112 -465 -41 -134 -46 -210
-16 -269 57 -111 203 -184 431 -214 221 -30 611 21 611 80 0 39 -26 106 -92
238 -71 143 -71 143 -76 241 -5 113 9 200 65 387 64 219 74 258 92 376 17 111
20 121 59 172 61 78 153 164 364 336 230 187 302 262 383 396 l36 60 -6 -60
c-4 -33 -8 -66 -11 -72 -6 -21 14 -15 26 7 13 25 52 26 72 3 9 -10 24 -36 33
-58 l17 -40 17 40 17 39 18 -69 c17 -69 93 -235 108 -235 4 0 8 15 8 33 0 55
15 62 29 15 25 -81 105 -208 132 -208 5 0 9 18 9 40 0 22 3 40 8 40 4 0 16
-21 26 -48 28 -69 101 -176 149 -218 42 -37 119 -77 170 -89 26 -7 27 -6 28
36 0 24 4 67 7 94 l7 50 24 -65 c56 -149 99 -219 200 -324 l98 -101 7 -130
c20 -389 94 -633 236 -775 164 -164 388 -189 721 -79 192 63 279 127 279 204
0 48 -53 125 -137 200 -267 239 -432 518 -514 870 -26 115 -37 409 -19 523 23
149 28 161 70 172 74 20 163 -13 236 -86 l45 -44 69 35 c38 19 72 35 74 35 3
0 12 -26 21 -57 9 -32 18 -64 21 -72 2 -8 19 10 43 45 70 108 159 174 236 174
41 0 42 -3 16 -85 -50 -161 -71 -458 -47 -700 l8 -90 41 80 c37 72 42 77 45
51 6 -51 -16 -147 -79 -336 -73 -218 -85 -319 -54 -426 l18 -59 28 60 29 60
-5 -81 c-7 -107 -33 -207 -100 -381 -80 -211 -91 -303 -44 -394 44 -87 137
-133 319 -160 123 -19 564 -18 659 0 106 21 209 76 234 124 33 64 16 95 -135
259 -154 168 -189 229 -190 330 0 77 25 151 86 258 219 378 398 850 548 1440
27 107 51 196 54 199 2 2 4 -29 5 -70 l1 -74 32 95 c53 156 81 197 115 166 36
-32 79 -131 125 -285 63 -207 109 -292 195 -361 l39 -30 -24 75 c-24 75 -29
147 -14 195 l7 25 8 -30 c42 -172 108 -326 184 -428 40 -55 129 -147 142 -147
3 0 -2 24 -12 52 -19 55 -24 180 -9 228 l7 25 7 -30 c4 -16 14 -57 22 -90 36
-149 151 -350 263 -460 l61 -59 1 39 c0 22 4 49 8 60 7 16 9 14 15 -17 11 -59
81 -189 128 -237 40 -41 123 -101 139 -101 5 0 -1 21 -12 46 -12 25 -19 47
-17 49 6 6 103 -124 128 -172 39 -74 36 -180 -8 -295 -18 -48 -37 -111 -41
-140 -10 -63 3 -169 25 -203 55 -84 308 -170 574 -194 284 -27 476 2 532 80
29 39 15 71 -69 163 -53 57 -86 104 -113 161 -65 138 -82 240 -100 620 -11
246 -22 337 -56 454 -39 132 -82 202 -199 316 -56 55 -119 126 -139 157 -152
239 -308 678 -375 1058 -77 435 -31 734 129 841 68 46 82 46 165 4 96 -49 164
-54 338 -26 218 36 240 32 405 -78 168 -112 246 -137 288 -90 27 30 31 167 9
299 l-17 100 67 75 67 75 97 -89 c131 -121 136 -127 171 -204 58 -129 78 -268
96 -662 3 -82 6 -174 5 -203 -6 -189 -160 -390 -370 -485 -36 -16 -68 -21
-142 -21 -90 -1 -97 1 -133 28 -21 16 -47 47 -57 70 -19 42 -26 141 -10 150 9
6 32 -8 127 -77 92 -66 138 -59 194 30 36 57 44 91 31 140 -32 119 -269 230
-472 221 -63 -2 -84 -8 -124 -33 -60 -37 -106 -95 -136 -172 -19 -49 -23 -77
-23 -188 -1 -111 2 -140 22 -200 70 -210 185 -323 416 -410 122 -46 202 -60
341 -59 154 2 254 27 394 99 399 207 712 727 776 1286 l7 55 81 -18 c108 -24
337 -34 452 -19 185 23 378 94 471 175 24 20 74 47 115 62 167 60 286 133 407
249 217 207 334 491 349 850 26 635 -301 1287 -762 1518 -76 38 -173 73 -181
65 -3 -3 23 -28 58 -55 252 -199 410 -464 480 -802 31 -151 31 -425 -1 -596
-21 -113 -64 -282 -76 -293 -3 -3 -5 11 -5 31 0 21 -7 79 -15 130 -103 638
-499 1172 -1071 1444 -64 30 -118 52 -122 49 -3 -3 -3 -7 -1 -9 2 -2 36 -25
74 -52 88 -61 252 -225 332 -330 181 -240 317 -502 398 -770 53 -177 68 -272
69 -440 1 -168 -9 -221 -60 -332 -61 -135 -166 -219 -329 -264 -71 -19 -96
-21 -235 -16 -154 5 -260 23 -395 64 l-60 19 -38 149 c-21 83 -56 197 -77 255
-21 58 -41 132 -44 165 -6 70 -64 196 -120 261 -19 22 -44 64 -54 92 -26 68
-98 167 -166 229 -32 29 -58 63 -62 79 -13 55 -79 168 -131 225 -43 45 -53 63
-53 91 0 42 -57 212 -97 293 -46 90 -112 173 -203 253 -204 181 -257 286 -375
740 -75 291 -90 336 -152 462 -54 109 -151 215 -243 268 -57 32 -187 79 -195
70 -3 -3 1 -26 9 -51 8 -26 10 -47 5 -47 -5 0 -9 4 -9 8 0 16 -79 87 -132 119
-93 56 -304 103 -463 103 l-47 0 4 -70z"/>
</g>
</svg>
